<svg width="25" height="25" viewBox="0 0 25 25" fill="none" xmlns="http://www.w3.org/2000/svg">
<path d="M9.89905 9.58781C10.4291 10.0628 11.1311 10.3518 11.8991 10.3518H13.8991C14.6372 10.3528 15.3496 10.0807 15.8991 9.58781H9.89905ZM9.89905 9.58781C9.34959 10.0807 8.63718 10.3528 7.89905 10.3518L9.89905 9.58781ZM8.94905 4.35181V4.30181H8.89905H5.89905C5.62057 4.30181 5.3535 4.41243 5.15659 4.60934C4.95968 4.80626 4.84905 5.07333 4.84905 5.35181V7.35181C4.84905 7.63028 4.95968 7.89736 5.15659 8.09427C5.3535 8.29118 5.62057 8.40181 5.89905 8.40181H7.89905C8.17753 8.40181 8.4446 8.29118 8.64151 8.09427C8.83843 7.89736 8.94905 7.63028 8.94905 7.35181V4.35181ZM5.90905 10.3018H5.85905V10.3518V20.3168V20.3668H5.90905H7.89905H7.94905V20.3168V15.3518C7.94905 14.8346 8.1545 14.3386 8.52019 13.9729C8.88589 13.6073 9.38188 13.4018 9.89905 13.4018H11.8991C12.4162 13.4018 12.9122 13.6073 13.2779 13.9729C13.6436 14.3386 13.8491 14.8346 13.8491 15.3518V20.3168V20.3668H13.8991H19.9121H19.9621V20.3168V10.3518V10.3018H19.9121H17.8991C17.1438 10.3018 16.4536 10.0177 15.9324 9.55057L15.899 9.52065L15.8657 9.55059C15.3254 10.0352 14.6249 10.3028 13.8991 10.3018H13.8991H11.8991C11.1438 10.3018 10.4536 10.0177 9.93242 9.55057L9.89904 9.52065L9.86566 9.55059C9.32539 10.0352 8.6249 10.3028 7.89912 10.3018H7.89905H5.90905ZM3.90722 9.52893C3.61078 9.25816 3.37275 8.92947 3.20795 8.56299C3.03672 8.18222 2.94847 7.76938 2.94905 7.35188V7.35181V5.35181C2.94905 4.56942 3.25985 3.81907 3.81309 3.26584C4.36632 2.71261 5.11666 2.40181 5.89905 2.40181H19.8991C20.6814 2.40181 21.4318 2.71261 21.985 3.26584C22.5382 3.81907 22.8491 4.56942 22.8491 5.35181V7.35181C22.8491 8.21914 22.4754 8.99984 21.8785 9.53972L21.8621 9.55461V9.57681V20.3168C21.8621 20.834 21.6566 21.33 21.2909 21.6957C20.9252 22.0614 20.4292 22.2668 19.9121 22.2668H12.2721V22.2659L12.2628 22.2677C12.1428 22.2904 12.0211 22.3018 11.899 22.3018H9.89905C9.77702 22.3018 9.65525 22.2904 9.53534 22.2677L9.53551 22.2668H9.52605H5.91005C5.39288 22.2668 4.89689 22.0614 4.53119 21.6957C4.1655 21.33 3.96005 20.834 3.96005 20.3168V9.59681V9.47611L3.90722 9.52893ZM11.9491 15.3518V15.3018H11.8991H9.89905H9.84905V15.3518V20.3168V20.3668H9.89905H11.8991V20.3178H11.9491V20.3168V20.2668V15.3518ZM14.9491 4.35181V4.30181H14.8991H10.8991H10.8491V4.35181V7.35181C10.8491 7.63028 10.9597 7.89736 11.1566 8.09427C11.3535 8.29118 11.6206 8.40181 11.8991 8.40181H13.8991C14.1775 8.40181 14.4446 8.29118 14.6415 8.09427C14.8384 7.89736 14.9491 7.63028 14.9491 7.35181V4.35181ZM16.8991 4.30181H16.8491V4.35181V7.35181C16.8491 7.63028 16.9597 7.89736 17.1566 8.09427C17.3535 8.29118 17.6206 8.40181 17.8991 8.40181H19.8991C20.1775 8.40181 20.4446 8.29118 20.6415 8.09427C20.8384 7.89736 20.9491 7.63028 20.9491 7.35181V5.35181C20.9491 5.07333 20.8384 4.80626 20.6415 4.60934C20.4446 4.41243 20.1775 4.30181 19.8991 4.30181H16.8991ZM16.8991 13.4018H17.8991C18.151 13.4018 18.3926 13.5019 18.5708 13.6801C18.749 13.8582 18.8491 14.0999 18.8491 14.3518V17.3518C18.8491 17.6038 18.749 17.8454 18.5708 18.0236C18.3926 18.2017 18.151 18.3018 17.8991 18.3018H16.8991C16.6471 18.3018 16.4055 18.2017 16.2273 18.0236C16.0491 17.8454 15.9491 17.6038 15.9491 17.3518V14.3518C15.9491 14.0999 16.0491 13.8582 16.2273 13.6801C16.4055 13.5019 16.6471 13.4018 16.8991 13.4018Z" fill="#181725" stroke="white" stroke-width="0.1"/>
</svg>
